<?xml version="1.0" standalone="no"?>
<!DOCTYPE svg PUBLIC "-//W3C//DTD SVG 20010904//EN"
 "http://www.w3.org/TR/2001/REC-SVG-20010904/DTD/svg10.dtd">
<svg version="1.0" xmlns="http://www.w3.org/2000/svg"
 width="256.000000pt" height="256.000000pt" viewBox="0 0 256.000000 256.000000"
 preserveAspectRatio="xMidYMid meet">

<g transform="translate(0.000000,256.000000) scale(0.100000,-0.100000)"
fill="#000000" stroke="none">
<path d="M423 1750 c-30 -27 -36 -55 -21 -87 28 -59 98 -63 134 -9 45 70 -52
153 -113 96z"/>
<path d="M591 1753 c-54 -46 -22 -136 49 -136 34 0 80 39 80 68 0 66 -80 108
-129 68z"/>
<path d="M1283 1754 c-9 -24 5 -492 16 -538 16 -64 40 -80 128 -86 76 -5 76
-5 88 -39 16 -50 68 -106 122 -132 43 -21 65 -24 208 -27 127 -3 169 -1 197
11 31 13 41 13 80 1 58 -20 116 -3 137 40 15 33 40 528 28 560 -5 14 -17 16
-54 14 l-48 -3 0 -248 c0 -232 -1 -249 -19 -262 -23 -17 -36 -11 -36 16 0 16
-7 19 -50 19 -47 0 -50 -2 -50 -25 l0 -25 -162 0 c-143 0 -167 2 -204 20 -40
20 -82 65 -70 77 2 3 110 7 238 10 253 6 268 9 268 63 0 52 -42 153 -82 196
-61 66 -116 88 -218 88 -55 -1 -98 -6 -122 -17 -59 -25 -125 -93 -158 -163
-29 -63 -31 -64 -69 -64 -74 0 -75 2 -68 271 3 166 2 240 -6 248 -18 18 -87
14 -94 -5z m622 -373 c50 -22 105 -84 105 -116 l0 -25 -210 0 c-115 0 -210 2
-210 5 0 3 9 23 20 45 20 40 67 81 110 99 42 16 141 12 185 -8z"/>
<path d="M1542 1667 c-47 -50 -15 -127 53 -127 70 0 103 87 49 129 -35 28 -75
27 -102 -2z"/>
<path d="M460 1554 c-8 -3 -36 -15 -62 -26 -47 -21 -48 -21 -90 -2 -30 13 -65
19 -121 19 -77 0 -79 -1 -109 -34 -25 -28 -29 -39 -24 -70 3 -21 16 -45 31
-58 24 -21 36 -23 145 -23 113 0 120 -1 149 -26 l31 -26 0 54 c0 52 1 55 35
71 40 19 110 22 152 6 40 -15 92 -67 114 -114 14 -29 19 -64 19 -127 l0 -88
-221 0 -221 0 -29 29 -29 29 0 -51 c0 -60 30 -128 66 -152 25 -16 27 -16 41 5
40 57 141 34 143 -32 0 -15 9 -18 55 -18 41 0 55 4 55 14 0 8 11 27 23 42 32
37 81 37 112 2 14 -16 27 -23 35 -18 6 4 25 1 40 -6 22 -12 91 -14 351 -12
l324 3 0 45 0 45 -165 5 c-185 6 -201 11 -263 79 -59 65 -64 176 -12 250 33
48 112 91 167 91 32 0 39 4 44 25 3 14 3 37 0 51 -7 26 -9 27 -69 22 -104 -9
-204 -75 -251 -166 -47 -92 -34 -243 30 -329 l16 -23 -55 0 c-89 0 -87 -7 -87
276 l0 244 -50 0 c-48 0 -51 -1 -57 -30 -3 -17 -8 -29 -12 -27 -66 36 -115 51
-171 54 -36 1 -72 0 -80 -3z"/>
<path d="M2364 1548 c-8 -13 -7 -595 1 -608 8 -14 82 -12 91 1 8 13 7 596 -1
610 -9 13 -82 11 -91 -3z"/>
<path d="M230 1259 c0 -28 5 -59 10 -70 16 -29 64 -49 120 -49 l50 0 0 60 c0
51 -4 65 -25 85 -21 22 -33 25 -90 25 l-65 0 0 -51z"/>
<path d="M356 968 c-9 -12 -16 -35 -16 -50 0 -22 -7 -31 -32 -42 -33 -14 -33
-14 32 -15 86 -1 114 14 118 60 4 44 -17 69 -58 69 -18 0 -34 -8 -44 -22z m69
-38 c0 -18 -6 -26 -23 -28 -27 -4 -40 22 -22 44 19 22 45 13 45 -16z"/>
<path d="M627 973 c-8 -10 -17 -33 -19 -52 -2 -29 -9 -36 -38 -47 -34 -12 -34
-12 33 -13 93 -1 127 17 127 70 0 51 -69 79 -103 42z m68 -43 c0 -18 -6 -26
-23 -28 -13 -2 -25 3 -28 12 -10 26 4 48 28 44 17 -2 23 -10 23 -28z"/>
<path d="M2022 877 c-46 -49 -12 -127 56 -127 43 0 72 30 72 75 0 69 -81 102
-128 52z"/>
<path d="M830 800 c-11 -11 -20 -28 -20 -38 0 -28 29 -62 52 -62 20 0 21 1 4
13 -13 9 -17 23 -14 52 3 46 27 58 59 29 18 -16 19 -16 19 4 0 19 -6 22 -40
22 -27 0 -47 -7 -60 -20z"/>
<path d="M1072 804 c-39 -27 -21 -104 24 -104 13 0 13 2 -1 16 -21 21 -16 73
8 88 39 24 63 -71 24 -96 -9 -6 -8 -8 4 -8 22 0 49 32 49 58 0 29 -34 62 -63
62 -12 0 -33 -7 -45 -16z"/>
<path d="M1312 804 c-39 -27 -21 -104 24 -104 13 0 13 2 -1 16 -21 21 -16 73
8 88 39 24 63 -71 24 -96 -9 -6 -8 -8 4 -8 22 0 49 32 49 58 0 29 -34 62 -63
62 -12 0 -33 -7 -45 -16z"/>
<path d="M1545 760 c0 -57 1 -60 25 -60 19 0 21 3 12 12 -19 19 -15 87 4 95
36 14 59 -61 28 -91 -13 -14 -13 -16 0 -16 24 0 46 29 46 60 0 36 -32 60 -80
60 l-35 0 0 -60z"/>
<path d="M1793 813 c-7 -2 -13 -15 -13 -29 0 -18 9 -27 36 -39 32 -13 35 -17
23 -31 -12 -14 -11 -16 6 -13 34 7 26 51 -12 68 -18 8 -33 18 -33 23 0 15 31
21 43 9 15 -15 27 -14 27 4 0 15 -48 20 -77 8z"/>
<path d="M897 725 c-6 -33 22 -31 34 3 7 18 5 22 -10 22 -12 0 -20 -9 -24 -25z"/>
<path d="M1770 720 c0 -13 7 -20 20 -20 19 0 19 1 3 20 -10 11 -19 20 -20 20
-2 0 -3 -9 -3 -20z"/>
</g>
</svg>
